<svg width="132" height="75" viewBox="0 0 132 75" fill="none" xmlns="http://www.w3.org/2000/svg">
<path d="M76.908 31.176C76.444 29.842 75.574 30.886 73.776 30.77C72.21 30.77 70.412 31.118 68.846 31.176C68.846 30.074 68.788 29.03 68.788 27.928C68.788 26.942 69.02 25.898 69.02 24.912C69.02 24.39 68.962 23.926 68.846 23.462C68.498 22.534 68.672 22.65 67.338 22.65C62.64 22.65 63.22 24.332 63.626 25.84C64.032 27.522 63.974 29.668 64.032 31.408C62.988 31.466 62.002 31.524 60.958 31.524C59.334 31.524 57.71 31.35 56.086 31.35C55.854 31.35 55.622 31.408 55.448 31.466C55.1 31.988 55.158 35.41 55.158 36.28C58.174 36.164 61.248 36.106 64.264 36.048C64.322 36.802 64.322 37.556 64.322 38.252C64.322 39.818 64.148 41.442 64.148 43.008C64.148 43.24 64.206 43.472 64.322 43.646C64.786 43.936 68.266 43.878 69.078 43.936C69.02 41.268 68.962 38.658 68.904 35.99C69.832 35.99 70.702 35.99 71.63 35.99C73.544 35.99 77.082 37.324 77.082 34.54C77.082 33.554 77.14 32.162 76.908 31.176Z" fill="#4C527D"/>
<path d="M76.908 31.176L77.8814 30.947L77.8695 30.8965L77.8525 30.8475L76.908 31.176ZM73.776 30.77L73.8404 29.7721L73.8082 29.77H73.776V30.77ZM68.846 31.176H67.846V32.2137L68.883 32.1753L68.846 31.176ZM68.846 23.462L69.8161 23.2195L69.8023 23.1642L69.7823 23.1109L68.846 23.462ZM63.626 25.84L64.5981 25.6054L64.595 25.5926L64.5916 25.58L63.626 25.84ZM64.032 31.408L64.0875 32.4065L65.064 32.3522L65.0314 31.3747L64.032 31.408ZM55.448 31.466L55.1318 30.5173L54.8063 30.6258L54.6159 30.9113L55.448 31.466ZM55.158 36.28H54.158V37.3192L55.1964 37.2793L55.158 36.28ZM64.264 36.048L65.261 35.9713L65.1886 35.03L64.2448 35.0482L64.264 36.048ZM64.322 43.646L63.4899 44.2007L63.6094 44.3799L63.792 44.494L64.322 43.646ZM69.078 43.936L69.0067 44.9335L70.1016 45.0117L70.0777 43.9143L69.078 43.936ZM68.904 35.99V34.99H67.882L67.9042 36.0117L68.904 35.99ZM77.8525 30.8475C77.6981 30.4036 77.4374 29.9407 76.9394 29.6801C76.464 29.4313 75.979 29.4818 75.6848 29.5287C74.9888 29.6397 74.5926 29.8206 73.8404 29.7721L73.7116 31.7679C74.7573 31.8354 75.6952 31.5523 75.9997 31.5038C76.2057 31.4709 76.1376 31.5178 76.012 31.4521C75.8638 31.3745 75.8859 31.2814 75.9635 31.5045L77.8525 30.8475ZM73.776 29.77C72.9297 29.77 72.0367 29.8637 71.1996 29.9575C70.3411 30.0537 69.5454 30.1494 68.809 30.1767L68.883 32.1753C69.7126 32.1446 70.5988 32.0373 71.4224 31.945C72.2673 31.8503 73.0562 31.77 73.776 31.77V29.77ZM69.846 31.176C69.846 30.6093 69.8311 30.0595 69.8166 29.525C69.8021 28.9865 69.788 28.4633 69.788 27.928H67.788C67.788 28.4947 67.8029 29.0445 67.8174 29.579C67.8319 30.1175 67.846 30.6407 67.846 31.176H69.846ZM69.788 27.928C69.788 27.5019 69.8383 27.0521 69.8975 26.5335C69.9543 26.0371 70.02 25.4719 70.02 24.912H68.02C68.02 25.338 67.9697 25.7879 67.9105 26.3065C67.8537 26.8029 67.788 27.368 67.788 27.928H69.788ZM70.02 24.912C70.02 24.3108 69.9526 23.7652 69.8161 23.2195L67.8758 23.7045C67.9714 24.0868 68.02 24.4692 68.02 24.912H70.02ZM69.7823 23.1109C69.7197 22.944 69.6335 22.6907 69.5641 22.5356C69.4767 22.3401 69.3048 22.0199 68.9243 21.8214C68.6117 21.6583 68.2805 21.6501 68.108 21.6466C67.9254 21.6428 67.6206 21.65 67.338 21.65V23.65C67.5114 23.65 67.6606 23.6481 67.7825 23.6468C67.909 23.6454 67.997 23.6447 68.0669 23.6462C68.1387 23.6476 68.1598 23.651 68.1556 23.6503C68.1482 23.6492 68.084 23.6388 67.9992 23.5946C67.9046 23.5452 67.831 23.4784 67.7812 23.4149C67.7402 23.3627 67.7277 23.3283 67.7382 23.3517C67.7487 23.3753 67.7649 23.4164 67.7962 23.5025C67.824 23.5788 67.8639 23.6911 67.9097 23.8131L69.7823 23.1109ZM67.338 21.65C66.1168 21.65 65.1624 21.7578 64.4297 21.9791C63.6905 22.2024 63.0935 22.5683 62.7268 23.1387C62.3611 23.7077 62.3289 24.3185 62.3793 24.8078C62.4277 25.2776 62.5689 25.7603 62.6604 26.1L64.5916 25.58C64.48 25.1657 64.3966 24.8727 64.3688 24.603C64.343 24.3527 64.3834 24.2603 64.4092 24.2203C64.4339 24.1817 64.5475 24.0328 65.0081 23.8936C65.4753 23.7525 66.2101 23.65 67.338 23.65V21.65ZM62.6539 26.0746C63.0282 27.6252 62.971 29.5957 63.0325 31.4413L65.0314 31.3747C64.977 29.7403 65.0358 27.4188 64.5981 25.6054L62.6539 26.0746ZM63.9765 30.4095C62.9254 30.4679 61.9688 30.524 60.958 30.524V32.524C62.0351 32.524 63.0505 32.4641 64.0875 32.4065L63.9765 30.4095ZM60.958 30.524C60.1772 30.524 59.392 30.4822 58.5755 30.4384C57.768 30.3952 56.9292 30.35 56.086 30.35V32.35C56.8667 32.35 57.652 32.3918 58.4685 32.4356C59.276 32.4788 60.1147 32.524 60.958 32.524V30.524ZM56.086 30.35C55.7027 30.35 55.3557 30.4427 55.1318 30.5173L55.7642 32.4147C55.8208 32.3958 55.8815 32.3788 55.9414 32.3668C56.0022 32.3547 56.0509 32.35 56.086 32.35V30.35ZM54.6159 30.9113C54.4613 31.1432 54.3937 31.4129 54.3586 31.5737C54.3161 31.7684 54.2852 31.988 54.2615 32.21C54.2139 32.6562 54.1876 33.1902 54.1729 33.7143C54.1434 34.7626 54.158 35.8638 54.158 36.28H56.158C56.158 35.8262 56.1436 34.7814 56.1721 33.7707C56.1863 33.2653 56.2108 32.7916 56.2502 32.4221C56.27 32.2363 56.2917 32.0961 56.3126 32.0004C56.3409 31.8707 56.3476 31.9193 56.28 32.0207L54.6159 30.9113ZM55.1964 37.2793C58.2011 37.1637 61.2652 37.1059 64.2832 37.0478L64.2448 35.0482C61.2308 35.1061 58.1469 35.1643 55.1196 35.2807L55.1964 37.2793ZM63.2669 36.1247C63.3215 36.8343 63.322 37.5504 63.322 38.252H65.322C65.322 37.5616 65.3225 36.7697 65.261 35.9713L63.2669 36.1247ZM63.322 38.252C63.322 39.0031 63.2802 39.7731 63.2365 40.5755C63.1932 41.3681 63.148 42.1931 63.148 43.008H65.148C65.148 42.2569 65.1897 41.4869 65.2335 40.6845C65.2767 39.8919 65.322 39.0669 65.322 38.252H63.322ZM63.148 43.008C63.148 43.3883 63.24 43.8259 63.4899 44.2007L65.154 43.0913C65.166 43.1092 65.1632 43.1116 65.1577 43.0911C65.1525 43.0715 65.148 43.0425 65.148 43.008H63.148ZM63.792 44.494C64.0266 44.6406 64.3023 44.6962 64.4432 44.7224C64.6285 44.757 64.8408 44.7821 65.0573 44.8015C65.4929 44.8406 66.0215 44.863 66.5413 44.8776C67.6359 44.9084 68.625 44.9062 69.0067 44.9335L69.1492 42.9385C68.719 42.9078 67.5621 42.9056 66.5976 42.8784C66.0879 42.864 65.6088 42.8429 65.236 42.8095C65.0483 42.7927 64.9063 42.7743 64.8093 42.7562C64.668 42.7299 64.7334 42.7239 64.852 42.798L63.792 44.494ZM70.0777 43.9143C70.0487 42.5801 70.0197 41.2605 69.9907 39.941C69.9617 38.6215 69.9327 37.3021 69.9037 35.9683L67.9042 36.0117C67.9332 37.3459 67.9622 38.6655 67.9912 39.985C68.0202 41.3045 68.0492 42.6239 68.0782 43.9577L70.0777 43.9143ZM68.904 36.99C68.9058 36.99 68.9076 36.99 68.9094 36.99C68.9112 36.99 68.913 36.99 68.9149 36.99C68.9167 36.99 68.9185 36.99 68.9203 36.99C68.9221 36.99 68.9239 36.99 68.9257 36.99C68.9275 36.99 68.9293 36.99 68.9312 36.99C68.933 36.99 68.9348 36.99 68.9366 36.99C68.9384 36.99 68.9402 36.99 68.942 36.99C68.9438 36.99 68.9456 36.99 68.9474 36.99C68.9493 36.99 68.9511 36.99 68.9529 36.99C68.9547 36.99 68.9565 36.99 68.9583 36.99C68.9601 36.99 68.9619 36.99 68.9637 36.99C68.9655 36.99 68.9673 36.99 68.9691 36.99C68.9709 36.99 68.9728 36.99 68.9746 36.99C68.9764 36.99 68.9782 36.99 68.98 36.99C68.9818 36.99 68.9836 36.99 68.9854 36.99C68.9872 36.99 68.989 36.99 68.9908 36.99C68.9926 36.99 68.9944 36.99 68.9962 36.99C68.998 36.99 68.9998 36.99 69.0017 36.99C69.0035 36.99 69.0053 36.99 69.0071 36.99C69.0089 36.99 69.0107 36.99 69.0125 36.99C69.0143 36.99 69.0161 36.99 69.0179 36.99C69.0197 36.99 69.0215 36.99 69.0233 36.99C69.0251 36.99 69.0269 36.99 69.0287 36.99C69.0305 36.99 69.0323 36.99 69.0341 36.99C69.0359 36.99 69.0377 36.99 69.0395 36.99C69.0413 36.99 69.0431 36.99 69.0449 36.99C69.0467 36.99 69.0485 36.99 69.0503 36.99C69.0521 36.99 69.0539 36.99 69.0557 36.99C69.0575 36.99 69.0593 36.99 69.0611 36.99C69.0629 36.99 69.0647 36.99 69.0665 36.99C69.0683 36.99 69.0701 36.99 69.0719 36.99C69.0737 36.99 69.0755 36.99 69.0773 36.99C69.0791 36.99 69.0809 36.99 69.0827 36.99C69.0845 36.99 69.0863 36.99 69.0881 36.99C69.0899 36.99 69.0917 36.99 69.0935 36.99C69.0953 36.99 69.0971 36.99 69.0989 36.99C69.1007 36.99 69.1025 36.99 69.1043 36.99C69.1061 36.99 69.1079 36.99 69.1097 36.99C69.1115 36.99 69.1133 36.99 69.1151 36.99C69.1169 36.99 69.1187 36.99 69.1205 36.99C69.1223 36.99 69.1241 36.99 69.1259 36.99C69.1277 36.99 69.1295 36.99 69.1313 36.99C69.133 36.99 69.1348 36.99 69.1366 36.99C69.1384 36.99 69.1402 36.99 69.142 36.99C69.1438 36.99 69.1456 36.99 69.1474 36.99C69.1492 36.99 69.151 36.99 69.1528 36.99C69.1546 36.99 69.1564 36.99 69.1582 36.99C69.16 36.99 69.1618 36.99 69.1636 36.99C69.1653 36.99 69.1671 36.99 69.1689 36.99C69.1707 36.99 69.1725 36.99 69.1743 36.99C69.1761 36.99 69.1779 36.99 69.1797 36.99C69.1815 36.99 69.1833 36.99 69.1851 36.99C69.1869 36.99 69.1886 36.99 69.1904 36.99C69.1922 36.99 69.194 36.99 69.1958 36.99C69.1976 36.99 69.1994 36.99 69.2012 36.99C69.203 36.99 69.2048 36.99 69.2066 36.99C69.2083 36.99 69.2101 36.99 69.2119 36.99C69.2137 36.99 69.2155 36.99 69.2173 36.99C69.2191 36.99 69.2209 36.99 69.2227 36.99C69.2245 36.99 69.2262 36.99 69.228 36.99C69.2298 36.99 69.2316 36.99 69.2334 36.99C69.2352 36.99 69.237 36.99 69.2388 36.99C69.2406 36.99 69.2423 36.99 69.2441 36.99C69.2459 36.99 69.2477 36.99 69.2495 36.99C69.2513 36.99 69.2531 36.99 69.2549 36.99C69.2566 36.99 69.2584 36.99 69.2602 36.99C69.262 36.99 69.2638 36.99 69.2656 36.99C69.2674 36.99 69.2692 36.99 69.2709 36.99C69.2727 36.99 69.2745 36.99 69.2763 36.99C69.2781 36.99 69.2799 36.99 69.2817 36.99C69.2834 36.99 69.2852 36.99 69.287 36.99C69.2888 36.99 69.2906 36.99 69.2924 36.99C69.2942 36.99 69.2959 36.99 69.2977 36.99C69.2995 36.99 69.3013 36.99 69.3031 36.99C69.3049 36.99 69.3066 36.99 69.3084 36.99C69.3102 36.99 69.312 36.99 69.3138 36.99C69.3156 36.99 69.3173 36.99 69.3191 36.99C69.3209 36.99 69.3227 36.99 69.3245 36.99C69.3263 36.99 69.328 36.99 69.3298 36.99C69.3316 36.99 69.3334 36.99 69.3352 36.99C69.337 36.99 69.3387 36.99 69.3405 36.99C69.3423 36.99 69.3441 36.99 69.3459 36.99C69.3477 36.99 69.3494 36.99 69.3512 36.99C69.353 36.99 69.3548 36.99 69.3566 36.99C69.3583 36.99 69.3601 36.99 69.3619 36.99C69.3637 36.99 69.3655 36.99 69.3673 36.99C69.369 36.99 69.3708 36.99 69.3726 36.99C69.3744 36.99 69.3762 36.99 69.3779 36.99C69.3797 36.99 69.3815 36.99 69.3833 36.99C69.3851 36.99 69.3868 36.99 69.3886 36.99C69.3904 36.99 69.3922 36.99 69.394 36.99C69.3957 36.99 69.3975 36.99 69.3993 36.99C69.4011 36.99 69.4028 36.99 69.4046 36.99C69.4064 36.99 69.4082 36.99 69.41 36.99C69.4117 36.99 69.4135 36.99 69.4153 36.99C69.4171 36.99 69.4189 36.99 69.4206 36.99C69.4224 36.99 69.4242 36.99 69.426 36.99C69.4277 36.99 69.4295 36.99 69.4313 36.99C69.4331 36.99 69.4349 36.99 69.4366 36.99C69.4384 36.99 69.4402 36.99 69.442 36.99C69.4437 36.99 69.4455 36.99 69.4473 36.99C69.4491 36.99 69.4508 36.99 69.4526 36.99C69.4544 36.99 69.4562 36.99 69.458 36.99C69.4597 36.99 69.4615 36.99 69.4633 36.99C69.4651 36.99 69.4668 36.99 69.4686 36.99C69.4704 36.99 69.4722 36.99 69.4739 36.99C69.4757 36.99 69.4775 36.99 69.4793 36.99C69.481 36.99 69.4828 36.99 69.4846 36.99C69.4864 36.99 69.4881 36.99 69.4899 36.99C69.4917 36.99 69.4935 36.99 69.4952 36.99C69.497 36.99 69.4988 36.99 69.5006 36.99C69.5023 36.99 69.5041 36.99 69.5059 36.99C69.5076 36.99 69.5094 36.99 69.5112 36.99C69.513 36.99 69.5147 36.99 69.5165 36.99C69.5183 36.99 69.5201 36.99 69.5218 36.99C69.5236 36.99 69.5254 36.99 69.5272 36.99C69.5289 36.99 69.5307 36.99 69.5325 36.99C69.5342 36.99 69.536 36.99 69.5378 36.99C69.5396 36.99 69.5413 36.99 69.5431 36.99C69.5449 36.99 69.5466 36.99 69.5484 36.99C69.5502 36.99 69.552 36.99 69.5537 36.99C69.5555 36.99 69.5573 36.99 69.5591 36.99C69.5608 36.99 69.5626 36.99 69.5644 36.99C69.5661 36.99 69.5679 36.99 69.5697 36.99C69.5714 36.99 69.5732 36.99 69.575 36.99C69.5768 36.99 69.5785 36.99 69.5803 36.99C69.5821 36.99 69.5838 36.99 69.5856 36.99C69.5874 36.99 69.5892 36.99 69.5909 36.99C69.5927 36.99 69.5945 36.99 69.5962 36.99C69.598 36.99 69.5998 36.99 69.6015 36.99C69.6033 36.99 69.6051 36.99 69.6069 36.99C69.6086 36.99 69.6104 36.99 69.6122 36.99C69.6139 36.99 69.6157 36.99 69.6175 36.99C69.6192 36.99 69.621 36.99 69.6228 36.99C69.6245 36.99 69.6263 36.99 69.6281 36.99C69.6298 36.99 69.6316 36.99 69.6334 36.99C69.6352 36.99 69.6369 36.99 69.6387 36.99C69.6405 36.99 69.6422 36.99 69.644 36.99C69.6458 36.99 69.6475 36.99 69.6493 36.99C69.6511 36.99 69.6528 36.99 69.6546 36.99C69.6564 36.99 69.6581 36.99 69.6599 36.99C69.6617 36.99 69.6634 36.99 69.6652 36.99C69.667 36.99 69.6687 36.99 69.6705 36.99C69.6723 36.99 69.674 36.99 69.6758 36.99C69.6776 36.99 69.6793 36.99 69.6811 36.99C69.6829 36.99 69.6846 36.99 69.6864 36.99C69.6882 36.99 69.6899 36.99 69.6917 36.99C69.6935 36.99 69.6952 36.99 69.697 36.99C69.6988 36.99 69.7005 36.99 69.7023 36.99C69.7041 36.99 69.7058 36.99 69.7076 36.99C69.7094 36.99 69.7111 36.99 69.7129 36.99C69.7147 36.99 69.7164 36.99 69.7182 36.99C69.72 36.99 69.7217 36.99 69.7235 36.99C69.7252 36.99 69.727 36.99 69.7288 36.99C69.7305 36.99 69.7323 36.99 69.7341 36.99C69.7358 36.99 69.7376 36.99 69.7394 36.99C69.7411 36.99 69.7429 36.99 69.7447 36.99C69.7464 36.99 69.7482 36.99 69.7499 36.99C69.7517 36.99 69.7535 36.99 69.7552 36.99C69.757 36.99 69.7588 36.99 69.7605 36.99C69.7623 36.99 69.7641 36.99 69.7658 36.99C69.7676 36.99 69.7694 36.99 69.7711 36.99C69.7729 36.99 69.7746 36.99 69.7764 36.99C69.7782 36.99 69.7799 36.99 69.7817 36.99C69.7835 36.99 69.7852 36.99 69.787 36.99C69.7887 36.99 69.7905 36.99 69.7923 36.99C69.794 36.99 69.7958 36.99 69.7976 36.99C69.7993 36.99 69.8011 36.99 69.8028 36.99C69.8046 36.99 69.8064 36.99 69.8081 36.99C69.8099 36.99 69.8117 36.99 69.8134 36.99C69.8152 36.99 69.8169 36.99 69.8187 36.99C69.8205 36.99 69.8222 36.99 69.824 36.99C69.8258 36.99 69.8275 36.99 69.8293 36.99C69.831 36.99 69.8328 36.99 69.8346 36.99C69.8363 36.99 69.8381 36.99 69.8399 36.99C69.8416 36.99 69.8434 36.99 69.8451 36.99C69.8469 36.99 69.8487 36.99 69.8504 36.99C69.8522 36.99 69.8539 36.99 69.8557 36.99C69.8575 36.99 69.8592 36.99 69.861 36.99C69.8627 36.99 69.8645 36.99 69.8663 36.99C69.868 36.99 69.8698 36.99 69.8716 36.99C69.8733 36.99 69.8751 36.99 69.8768 36.99C69.8786 36.99 69.8804 36.99 69.8821 36.99C69.8839 36.99 69.8856 36.99 69.8874 36.99C69.8892 36.99 69.8909 36.99 69.8927 36.99C69.8944 36.99 69.8962 36.99 69.898 36.99C69.8997 36.99 69.9015 36.99 69.9032 36.99C69.905 36.99 69.9068 36.99 69.9085 36.99C69.9103 36.99 69.912 36.99 69.9138 36.99C69.9156 36.99 69.9173 36.99 69.9191 36.99C69.9208 36.99 69.9226 36.99 69.9244 36.99C69.9261 36.99 69.9279 36.99 69.9296 36.99C69.9314 36.99 69.9332 36.99 69.9349 36.99C69.9367 36.99 69.9384 36.99 69.9402 36.99C69.9419 36.99 69.9437 36.99 69.9455 36.99C69.9472 36.99 69.949 36.99 69.9507 36.99C69.9525 36.99 69.9543 36.99 69.956 36.99C69.9578 36.99 69.9595 36.99 69.9613 36.99C69.9631 36.99 69.9648 36.99 69.9666 36.99C69.9683 36.99 69.9701 36.99 69.9718 36.99C69.9736 36.99 69.9754 36.99 69.9771 36.99C69.9789 36.99 69.9806 36.99 69.9824 36.99C69.9842 36.99 69.9859 36.99 69.9877 36.99C69.9894 36.99 69.9912 36.99 69.9929 36.99C69.9947 36.99 69.9965 36.99 69.9982 36.99C70 36.99 70.0017 36.99 70.0035 36.99C70.0053 36.99 70.007 36.99 70.0088 36.99C70.0105 36.99 70.0123 36.99 70.014 36.99C70.0158 36.99 70.0176 36.99 70.0193 36.99C70.0211 36.99 70.0228 36.99 70.0246 36.99C70.0264 36.99 70.0281 36.99 70.0299 36.99C70.0316 36.99 70.0334 36.99 70.0351 36.99C70.0369 36.99 70.0387 36.99 70.0404 36.99C70.0422 36.99 70.0439 36.99 70.0457 36.99C70.0474 36.99 70.0492 36.99 70.051 36.99C70.0527 36.99 70.0545 36.99 70.0562 36.99C70.058 36.99 70.0597 36.99 70.0615 36.99C70.0633 36.99 70.065 36.99 70.0668 36.99C70.0685 36.99 70.0703 36.99 70.072 36.99C70.0738 36.99 70.0756 36.99 70.0773 36.99C70.0791 36.99 70.0808 36.99 70.0826 36.99C70.0843 36.99 70.0861 36.99 70.0879 36.99C70.0896 36.99 70.0914 36.99 70.0931 36.99C70.0949 36.99 70.0966 36.99 70.0984 36.99C70.1002 36.99 70.1019 36.99 70.1037 36.99C70.1054 36.99 70.1072 36.99 70.1089 36.99C70.1107 36.99 70.1124 36.99 70.1142 36.99C70.116 36.99 70.1177 36.99 70.1195 36.99C70.1212 36.99 70.123 36.99 70.1247 36.99C70.1265 36.99 70.1283 36.99 70.13 36.99C70.1318 36.99 70.1335 36.99 70.1353 36.99C70.137 36.99 70.1388 36.99 70.1406 36.99C70.1423 36.99 70.1441 36.99 70.1458 36.99C70.1476 36.99 70.1493 36.99 70.1511 36.99C70.1528 36.99 70.1546 36.99 70.1564 36.99C70.1581 36.99 70.1599 36.99 70.1616 36.99C70.1634 36.99 70.1651 36.99 70.1669 36.99C70.1687 36.99 70.1704 36.99 70.1722 36.99C70.1739 36.99 70.1757 36.99 70.1774 36.99C70.1792 36.99 70.1809 36.99 70.1827 36.99C70.1845 36.99 70.1862 36.99 70.188 36.99C70.1897 36.99 70.1915 36.99 70.1932 36.99C70.195 36.99 70.1967 36.99 70.1985 36.99C70.2003 36.99 70.202 36.99 70.2038 36.99C70.2055 36.99 70.2073 36.99 70.209 36.99C70.2108 36.99 70.2126 36.99 70.2143 36.99C70.2161 36.99 70.2178 36.99 70.2196 36.99C70.2213 36.99 70.2231 36.99 70.2248 36.99C70.2266 36.99 70.2284 36.99 70.2301 36.99C70.2319 36.99 70.2336 36.99 70.2354 36.99C70.2371 36.99 70.2389 36.99 70.2406 36.99C70.2424 36.99 70.2442 36.99 70.2459 36.99C70.2477 36.99 70.2494 36.99 70.2512 36.99C70.2529 36.99 70.2547 36.99 70.2565 36.99C70.2582 36.99 70.26 36.99 70.2617 36.99C70.2635 36.99 70.2652 36.99 70.267 36.99C70.2687 36.99 70.2705 36.99 70.2723 36.99C70.274 36.99 70.2758 36.99 70.2775 36.99C70.2793 36.99 70.281 36.99 70.2828 36.99C70.2845 36.99 70.2863 36.99 70.2881 36.99C70.2898 36.99 70.2916 36.99 70.2933 36.99C70.2951 36.99 70.2968 36.99 70.2986 36.99C70.3003 36.99 70.3021 36.99 70.3039 36.99C70.3056 36.99 70.3074 36.99 70.3091 36.99C70.3109 36.99 70.3126 36.99 70.3144 36.99C70.3162 36.99 70.3179 36.99 70.3197 36.99C70.3214 36.99 70.3232 36.99 70.3249 36.99C70.3267 36.99 70.3284 36.99 70.3302 36.99C70.332 36.99 70.3337 36.99 70.3355 36.99C70.3372 36.99 70.339 36.99 70.3407 36.99C70.3425 36.99 70.3442 36.99 70.346 36.99C70.3478 36.99 70.3495 36.99 70.3513 36.99C70.353 36.99 70.3548 36.99 70.3565 36.99C70.3583 36.99 70.3601 36.99 70.3618 36.99C70.3636 36.99 70.3653 36.99 70.3671 36.99C70.3688 36.99 70.3706 36.99 70.3723 36.99C70.3741 36.99 70.3759 36.99 70.3776 36.99C70.3794 36.99 70.3811 36.99 70.3829 36.99C70.3846 36.99 70.3864 36.99 70.3882 36.99C70.3899 36.99 70.3917 36.99 70.3934 36.99C70.3952 36.99 70.3969 36.99 70.3987 36.99C70.4004 36.99 70.4022 36.99 70.404 36.99C70.4057 36.99 70.4075 36.99 70.4092 36.99C70.411 36.99 70.4127 36.99 70.4145 36.99C70.4163 36.99 70.418 36.99 70.4198 36.99C70.4215 36.99 70.4233 36.99 70.425 36.99C70.4268 36.99 70.4285 36.99 70.4303 36.99C70.4321 36.99 70.4338 36.99 70.4356 36.99C70.4373 36.99 70.4391 36.99 70.4408 36.99C70.4426 36.99 70.4444 36.99 70.4461 36.99C70.4479 36.99 70.4496 36.99 70.4514 36.99C70.4531 36.99 70.4549 36.99 70.4567 36.99C70.4584 36.99 70.4602 36.99 70.4619 36.99C70.4637 36.99 70.4654 36.99 70.4672 36.99C70.469 36.99 70.4707 36.99 70.4725 36.99C70.4742 36.99 70.476 36.99 70.4777 36.99C70.4795 36.99 70.4813 36.99 70.483 36.99C70.4848 36.99 70.4865 36.99 70.4883 36.99C70.49 36.99 70.4918 36.99 70.4936 36.99C70.4953 36.99 70.4971 36.99 70.4988 36.99C70.5006 36.99 70.5023 36.99 70.5041 36.99C70.5059 36.99 70.5076 36.99 70.5094 36.99C70.5111 36.99 70.5129 36.99 70.5147 36.99C70.5164 36.99 70.5182 36.99 70.5199 36.99C70.5217 36.99 70.5234 36.99 70.5252 36.99C70.527 36.99 70.5287 36.99 70.5305 36.99C70.5322 36.99 70.534 36.99 70.5357 36.99C70.5375 36.99 70.5393 36.99 70.541 36.99C70.5428 36.99 70.5445 36.99 70.5463 36.99C70.5481 36.99 70.5498 36.99 70.5516 36.99C70.5533 36.99 70.5551 36.99 70.5568 36.99C70.5586 36.99 70.5604 36.99 70.5621 36.99C70.5639 36.99 70.5656 36.99 70.5674 36.99C70.5692 36.99 70.5709 36.99 70.5727 36.99C70.5744 36.99 70.5762 36.99 70.5779 36.99C70.5797 36.99 70.5815 36.99 70.5832 36.99C70.585 36.99 70.5867 36.99 70.5885 36.99C70.5903 36.99 70.592 36.99 70.5938 36.99C70.5955 36.99 70.5973 36.99 70.5991 36.99C70.6008 36.99 70.6026 36.99 70.6043 36.99C70.6061 36.99 70.6079 36.99 70.6096 36.99C70.6114 36.99 70.6131 36.99 70.6149 36.99C70.6167 36.99 70.6184 36.99 70.6202 36.99C70.6219 36.99 70.6237 36.99 70.6255 36.99C70.6272 36.99 70.629 36.99 70.6307 36.99C70.6325 36.99 70.6343 36.99 70.636 36.99C70.6378 36.99 70.6395 36.99 70.6413 36.99C70.6431 36.99 70.6448 36.99 70.6466 36.99C70.6483 36.99 70.6501 36.99 70.6519 36.99C70.6536 36.99 70.6554 36.99 70.6571 36.99C70.6589 36.99 70.6607 36.99 70.6624 36.99C70.6642 36.99 70.6659 36.99 70.6677 36.99C70.6695 36.99 70.6712 36.99 70.673 36.99C70.6747 36.99 70.6765 36.99 70.6783 36.99C70.68 36.99 70.6818 36.99 70.6835 36.99C70.6853 36.99 70.6871 36.99 70.6888 36.99C70.6906 36.99 70.6924 36.99 70.6941 36.99C70.6959 36.99 70.6976 36.99 70.6994 36.99C70.7012 36.99 70.7029 36.99 70.7047 36.99C70.7065 36.99 70.7082 36.99 70.71 36.99C70.7117 36.99 70.7135 36.99 70.7153 36.99C70.717 36.99 70.7188 36.99 70.7205 36.99C70.7223 36.99 70.7241 36.99 70.7258 36.99C70.7276 36.99 70.7294 36.99 70.7311 36.99C70.7329 36.99 70.7346 36.99 70.7364 36.99C70.7382 36.99 70.7399 36.99 70.7417 36.99C70.7435 36.99 70.7452 36.99 70.747 36.99C70.7487 36.99 70.7505 36.99 70.7523 36.99C70.754 36.99 70.7558 36.99 70.7576 36.99C70.7593 36.99 70.7611 36.99 70.7629 36.99C70.7646 36.99 70.7664 36.99 70.7681 36.99C70.7699 36.99 70.7717 36.99 70.7734 36.99C70.7752 36.99 70.777 36.99 70.7787 36.99C70.7805 36.99 70.7823 36.99 70.784 36.99C70.7858 36.99 70.7875 36.99 70.7893 36.99C70.7911 36.99 70.7928 36.99 70.7946 36.99C70.7964 36.99 70.7981 36.99 70.7999 36.99C70.8017 36.99 70.8034 36.99 70.8052 36.99C70.807 36.99 70.8087 36.99 70.8105 36.99C70.8123 36.99 70.814 36.99 70.8158 36.99C70.8176 36.99 70.8193 36.99 70.8211 36.99C70.8228 36.99 70.8246 36.99 70.8264 36.99C70.8281 36.99 70.8299 36.99 70.8317 36.99C70.8334 36.99 70.8352 36.99 70.837 36.99C70.8387 36.99 70.8405 36.99 70.8423 36.99C70.844 36.99 70.8458 36.99 70.8476 36.99C70.8493 36.99 70.8511 36.99 70.8529 36.99C70.8546 36.99 70.8564 36.99 70.8582 36.99C70.8599 36.99 70.8617 36.99 70.8635 36.99C70.8652 36.99 70.867 36.99 70.8688 36.99C70.8705 36.99 70.8723 36.99 70.8741 36.99C70.8758 36.99 70.8776 36.99 70.8794 36.99C70.8811 36.99 70.8829 36.99 70.8847 36.99C70.8864 36.99 70.8882 36.99 70.89 36.99C70.8917 36.99 70.8935 36.99 70.8953 36.99C70.8971 36.99 70.8988 36.99 70.9006 36.99C70.9024 36.99 70.9041 36.99 70.9059 36.99C70.9077 36.99 70.9094 36.99 70.9112 36.99C70.913 36.99 70.9147 36.99 70.9165 36.99C70.9183 36.99 70.92 36.99 70.9218 36.99C70.9236 36.99 70.9254 36.99 70.9271 36.99C70.9289 36.99 70.9307 36.99 70.9324 36.99C70.9342 36.99 70.936 36.99 70.9377 36.99C70.9395 36.99 70.9413 36.99 70.943 36.99C70.9448 36.99 70.9466 36.99 70.9484 36.99C70.9501 36.99 70.9519 36.99 70.9537 36.99C70.9554 36.99 70.9572 36.99 70.959 36.99C70.9608 36.99 70.9625 36.99 70.9643 36.99C70.9661 36.99 70.9678 36.99 70.9696 36.99C70.9714 36.99 70.9731 36.99 70.9749 36.99C70.9767 36.99 70.9785 36.99 70.9802 36.99C70.982 36.99 70.9838 36.99 70.9855 36.99C70.9873 36.99 70.9891 36.99 70.9909 36.99C70.9926 36.99 70.9944 36.99 70.9962 36.99C70.998 36.99 70.9997 36.99 71.0015 36.99C71.0033 36.99 71.005 36.99 71.0068 36.99C71.0086 36.99 71.0104 36.99 71.0121 36.99C71.0139 36.99 71.0157 36.99 71.0175 36.99C71.0192 36.99 71.021 36.99 71.0228 36.99C71.0245 36.99 71.0263 36.99 71.0281 36.99C71.0299 36.99 71.0316 36.99 71.0334 36.99C71.0352 36.99 71.037 36.99 71.0387 36.99C71.0405 36.99 71.0423 36.99 71.0441 36.99C71.0458 36.99 71.0476 36.99 71.0494 36.99C71.0512 36.99 71.0529 36.99 71.0547 36.99C71.0565 36.99 71.0583 36.99 71.06 36.99C71.0618 36.99 71.0636 36.99 71.0654 36.99C71.0671 36.99 71.0689 36.99 71.0707 36.99C71.0725 36.99 71.0742 36.99 71.076 36.99C71.0778 36.99 71.0796 36.99 71.0813 36.99C71.0831 36.99 71.0849 36.99 71.0867 36.99C71.0885 36.99 71.0902 36.99 71.092 36.99C71.0938 36.99 71.0956 36.99 71.0973 36.99C71.0991 36.99 71.1009 36.99 71.1027 36.99C71.1044 36.99 71.1062 36.99 71.108 36.99C71.1098 36.99 71.1116 36.99 71.1133 36.99C71.1151 36.99 71.1169 36.99 71.1187 36.99C71.1205 36.99 71.1222 36.99 71.124 36.99C71.1258 36.99 71.1276 36.99 71.1293 36.99C71.1311 36.99 71.1329 36.99 71.1347 36.99C71.1365 36.99 71.1382 36.99 71.14 36.99C71.1418 36.99 71.1436 36.99 71.1454 36.99C71.1471 36.99 71.1489 36.99 71.1507 36.99C71.1525 36.99 71.1543 36.99 71.156 36.99C71.1578 36.99 71.1596 36.99 71.1614 36.99C71.1632 36.99 71.1649 36.99 71.1667 36.99C71.1685 36.99 71.1703 36.99 71.1721 36.99C71.1738 36.99 71.1756 36.99 71.1774 36.99C71.1792 36.99 71.181 36.99 71.1828 36.99C71.1845 36.99 71.1863 36.99 71.1881 36.99C71.1899 36.99 71.1917 36.99 71.1934 36.99C71.1952 36.99 71.197 36.99 71.1988 36.99C71.2006 36.99 71.2024 36.99 71.2041 36.99C71.2059 36.99 71.2077 36.99 71.2095 36.99C71.2113 36.99 71.2131 36.99 71.2148 36.99C71.2166 36.99 71.2184 36.99 71.2202 36.99C71.222 36.99 71.2238 36.99 71.2255 36.99C71.2273 36.99 71.2291 36.99 71.2309 36.99C71.2327 36.99 71.2345 36.99 71.2362 36.99C71.238 36.99 71.2398 36.99 71.2416 36.99C71.2434 36.99 71.2452 36.99 71.247 36.99C71.2487 36.99 71.2505 36.99 71.2523 36.99C71.2541 36.99 71.2559 36.99 71.2577 36.99C71.2595 36.99 71.2612 36.99 71.263 36.99C71.2648 36.99 71.2666 36.99 71.2684 36.99C71.2702 36.99 71.272 36.99 71.2738 36.99C71.2755 36.99 71.2773 36.99 71.2791 36.99C71.2809 36.99 71.2827 36.99 71.2845 36.99C71.2863 36.99 71.2881 36.99 71.2898 36.99C71.2916 36.99 71.2934 36.99 71.2952 36.99C71.297 36.99 71.2988 36.99 71.3006 36.99C71.3024 36.99 71.3041 36.99 71.3059 36.99C71.3077 36.99 71.3095 36.99 71.3113 36.99C71.3131 36.99 71.3149 36.99 71.3167 36.99C71.3185 36.99 71.3203 36.99 71.322 36.99C71.3238 36.99 71.3256 36.99 71.3274 36.99C71.3292 36.99 71.331 36.99 71.3328 36.99C71.3346 36.99 71.3364 36.99 71.3382 36.99C71.34 36.99 71.3417 36.99 71.3435 36.99C71.3453 36.99 71.3471 36.99 71.3489 36.99C71.3507 36.99 71.3525 36.99 71.3543 36.99C71.3561 36.99 71.3579 36.99 71.3597 36.99C71.3615 36.99 71.3632 36.99 71.365 36.99C71.3668 36.99 71.3686 36.99 71.3704 36.99C71.3722 36.99 71.374 36.99 71.3758 36.99C71.3776 36.99 71.3794 36.99 71.3812 36.99C71.383 36.99 71.3848 36.99 71.3866 36.99C71.3884 36.99 71.3902 36.99 71.3919 36.99C71.3937 36.99 71.3955 36.99 71.3973 36.99C71.3991 36.99 71.4009 36.99 71.4027 36.99C71.4045 36.99 71.4063 36.99 71.4081 36.99C71.4099 36.99 71.4117 36.99 71.4135 36.99C71.4153 36.99 71.4171 36.99 71.4189 36.99C71.4207 36.99 71.4225 36.99 71.4243 36.99C71.4261 36.99 71.4279 36.99 71.4297 36.99C71.4315 36.99 71.4333 36.99 71.4351 36.99C71.4369 36.99 71.4387 36.99 71.4404 36.99C71.4422 36.99 71.444 36.99 71.4458 36.99C71.4476 36.99 71.4494 36.99 71.4512 36.99C71.453 36.99 71.4548 36.99 71.4566 36.99C71.4584 36.99 71.4602 36.99 71.462 36.99C71.4638 36.99 71.4656 36.99 71.4674 36.99C71.4692 36.99 71.471 36.99 71.4728 36.99C71.4746 36.99 71.4764 36.99 71.4782 36.99C71.48 36.99 71.4818 36.99 71.4836 36.99C71.4854 36.99 71.4872 36.99 71.489 36.99C71.4908 36.99 71.4926 36.99 71.4944 36.99C71.4963 36.99 71.4981 36.99 71.4999 36.99C71.5017 36.99 71.5035 36.99 71.5053 36.99C71.5071 36.99 71.5089 36.99 71.5107 36.99C71.5125 36.99 71.5143 36.99 71.5161 36.99C71.5179 36.99 71.5197 36.99 71.5215 36.99C71.5233 36.99 71.5251 36.99 71.5269 36.99C71.5287 36.99 71.5305 36.99 71.5323 36.99C71.5341 36.99 71.5359 36.99 71.5377 36.99C71.5395 36.99 71.5413 36.99 71.5432 36.99C71.545 36.99 71.5468 36.99 71.5486 36.99C71.5504 36.99 71.5522 36.99 71.554 36.99C71.5558 36.99 71.5576 36.99 71.5594 36.99C71.5612 36.99 71.563 36.99 71.5648 36.99C71.5666 36.99 71.5684 36.99 71.5703 36.99C71.5721 36.99 71.5739 36.99 71.5757 36.99C71.5775 36.99 71.5793 36.99 71.5811 36.99C71.5829 36.99 71.5847 36.99 71.5865 36.99C71.5883 36.99 71.5901 36.99 71.592 36.99C71.5938 36.99 71.5956 36.99 71.5974 36.99C71.5992 36.99 71.601 36.99 71.6028 36.99C71.6046 36.99 71.6064 36.99 71.6082 36.99C71.6101 36.99 71.6119 36.99 71.6137 36.99C71.6155 36.99 71.6173 36.99 71.6191 36.99C71.6209 36.99 71.6227 36.99 71.6245 36.99C71.6264 36.99 71.6282 36.99 71.63 36.99V34.99C71.6282 34.99 71.6264 34.99 71.6245 34.99C71.6227 34.99 71.6209 34.99 71.6191 34.99C71.6173 34.99 71.6155 34.99 71.6137 34.99C71.6119 34.99 71.6101 34.99 71.6082 34.99C71.6064 34.99 71.6046 34.99 71.6028 34.99C71.601 34.99 71.5992 34.99 71.5974 34.99C71.5956 34.99 71.5938 34.99 71.592 34.99C71.5901 34.99 71.5883 34.99 71.5865 34.99C71.5847 34.99 71.5829 34.99 71.5811 34.99C71.5793 34.99 71.5775 34.99 71.5757 34.99C71.5739 34.99 71.5721 34.99 71.5703 34.99C71.5684 34.99 71.5666 34.99 71.5648 34.99C71.563 34.99 71.5612 34.99 71.5594 34.99C71.5576 34.99 71.5558 34.99 71.554 34.99C71.5522 34.99 71.5504 34.99 71.5486 34.99C71.5468 34.99 71.545 34.99 71.5432 34.99C71.5413 34.99 71.5395 34.99 71.5377 34.99C71.5359 34.99 71.5341 34.99 71.5323 34.99C71.5305 34.99 71.5287 34.99 71.5269 34.99C71.5251 34.99 71.5233 34.99 71.5215 34.99C71.5197 34.99 71.5179 34.99 71.5161 34.99C71.5143 34.99 71.5125 34.99 71.5107 34.99C71.5089 34.99 71.5071 34.99 71.5053 34.99C71.5035 34.99 71.5017 34.99 71.4999 34.99C71.4981 34.99 71.4963 34.99 71.4944 34.99C71.4926 34.99 71.4908 34.99 71.489 34.99C71.4872 34.99 71.4854 34.99 71.4836 34.99C71.4818 34.99 71.48 34.99 71.4782 34.99C71.4764 34.99 71.4746 34.99 71.4728 34.99C71.471 34.99 71.4692 34.99 71.4674 34.99C71.4656 34.99 71.4638 34.99 71.462 34.99C71.4602 34.99 71.4584 34.99 71.4566 34.99C71.4548 34.99 71.453 34.99 71.4512 34.99C71.4494 34.99 71.4476 34.99 71.4458 34.99C71.444 34.99 71.4422 34.99 71.4404 34.99C71.4387 34.99 71.4369 34.99 71.4351 34.99C71.4333 34.99 71.4315 34.99 71.4297 34.99C71.4279 34.99 71.4261 34.99 71.4243 34.99C71.4225 34.99 71.4207 34.99 71.4189 34.99C71.4171 34.99 71.4153 34.99 71.4135 34.99C71.4117 34.99 71.4099 34.99 71.4081 34.99C71.4063 34.99 71.4045 34.99 71.4027 34.99C71.4009 34.99 71.3991 34.99 71.3973 34.99C71.3955 34.99 71.3937 34.99 71.3919 34.99C71.3902 34.99 71.3884 34.99 71.3866 34.99C71.3848 34.99 71.383 34.99 71.3812 34.99C71.3794 34.99 71.3776 34.99 71.3758 34.99C71.374 34.99 71.3722 34.99 71.3704 34.99C71.3686 34.99 71.3668 34.99 71.365 34.99C71.3632 34.99 71.3615 34.99 71.3597 34.99C71.3579 34.99 71.3561 34.99 71.3543 34.99C71.3525 34.99 71.3507 34.99 71.3489 34.99C71.3471 34.99 71.3453 34.99 71.3435 34.99C71.3417 34.99 71.34 34.99 71.3382 34.99C71.3364 34.99 71.3346 34.99 71.3328 34.99C71.331 34.99 71.3292 34.99 71.3274 34.99C71.3256 34.99 71.3238 34.99 71.322 34.99C71.3203 34.99 71.3185 34.99 71.3167 34.99C71.3149 34.99 71.3131 34.99 71.3113 34.99C71.3095 34.99 71.3077 34.99 71.3059 34.99C71.3041 34.99 71.3024 34.99 71.3006 34.99C71.2988 34.99 71.297 34.99 71.2952 34.99C71.2934 34.99 71.2916 34.99 71.2898 34.99C71.2881 34.99 71.2863 34.99 71.2845 34.99C71.2827 34.99 71.2809 34.99 71.2791 34.99C71.2773 34.99 71.2755 34.99 71.2738 34.99C71.272 34.99 71.2702 34.99 71.2684 34.99C71.2666 34.99 71.2648 34.99 71.263 34.99C71.2612 34.99 71.2595 34.99 71.2577 34.99C71.2559 34.99 71.2541 34.99 71.2523 34.99C71.2505 34.99 71.2487 34.99 71.247 34.99C71.2452 34.99 71.2434 34.99 71.2416 34.99C71.2398 34.99 71.238 34.99 71.2362 34.99C71.2345 34.99 71.2327 34.99 71.2309 34.99C71.2291 34.99 71.2273 34.99 71.2255 34.99C71.2238 34.99 71.222 34.99 71.2202 34.99C71.2184 34.99 71.2166 34.99 71.2148 34.99C71.2131 34.99 71.2113 34.99 71.2095 34.99C71.2077 34.99 71.2059 34.99 71.2041 34.99C71.2024 34.99 71.2006 34.99 71.1988 34.99C71.197 34.99 71.1952 34.99 71.1934 34.99C71.1917 34.99 71.1899 34.99 71.1881 34.99C71.1863 34.99 71.1845 34.99 71.1828 34.99C71.181 34.99 71.1792 34.99 71.1774 34.99C71.1756 34.99 71.1738 34.99 71.1721 34.99C71.1703 34.99 71.1685 34.99 71.1667 34.99C71.1649 34.99 71.1632 34.99 71.1614 34.99C71.1596 34.99 71.1578 34.99 71.156 34.99C71.1543 34.99 71.1525 34.99 71.1507 34.99C71.1489 34.99 71.1471 34.99 71.1454 34.99C71.1436 34.99 71.1418 34.99 71.14 34.99C71.1382 34.99 71.1365 34.99 71.1347 34.99C71.1329 34.99 71.1311 34.99 71.1293 34.99C71.1276 34.99 71.1258 34.99 71.124 34.99C71.1222 34.99 71.1205 34.99 71.1187 34.99C71.1169 34.99 71.1151 34.99 71.1133 34.99C71.1116 34.99 71.1098 34.99 71.108 34.99C71.1062 34.99 71.1044 34.99 71.1027 34.99C71.1009 34.99 71.0991 34.99 71.0973 34.99C71.0956 34.99 71.0938 34.99 71.092 34.99C71.0902 34.99 71.0885 34.99 71.0867 34.99C71.0849 34.99 71.0831 34.99 71.0813 34.99C71.0796 34.99 71.0778 34.99 71.076 34.99C71.0742 34.99 71.0725 34.99 71.0707 34.99C71.0689 34.99 71.0671 34.99 71.0654 34.99C71.0636 34.99 71.0618 34.99 71.06 34.99C71.0583 34.99 71.0565 34.99 71.0547 34.99C71.0529 34.99 71.0512 34.99 71.0494 34.99C71.0476 34.99 71.0458 34.99 71.0441 34.99C71.0423 34.99 71.0405 34.99 71.0387 34.99C71.037 34.99 71.0352 34.99 71.0334 34.99C71.0316 34.99 71.0299 34.99 71.0281 34.99C71.0263 34.99 71.0245 34.99 71.0228 34.99C71.021 34.99 71.0192 34.99 71.0175 34.99C71.0157 34.99 71.0139 34.99 71.0121 34.99C71.0104 34.99 71.0086 34.99 71.0068 34.99C71.005 34.99 71.0033 34.99 71.0015 34.99C70.9997 34.99 70.998 34.99 70.9962 34.99C70.9944 34.99 70.9926 34.99 70.9909 34.99C70.9891 34.99 70.9873 34.99 70.9855 34.99C70.9838 34.99 70.982 34.99 70.9802 34.99C70.9785 34.99 70.9767 34.99 70.9749 34.99C70.9731 34.99 70.9714 34.99 70.9696 34.99C70.9678 34.99 70.9661 34.99 70.9643 34.99C70.9625 34.99 70.9608 34.99 70.959 34.99C70.9572 34.99 70.9554 34.99 70.9537 34.99C70.9519 34.99 70.9501 34.99 70.9484 34.99C70.9466 34.99 70.9448 34.99 70.943 34.99C70.9413 34.99 70.9395 34.99 70.9377 34.99C70.936 34.99 70.9342 34.99 70.9324 34.99C70.9307 34.99 70.9289 34.99 70.9271 34.99C70.9254 34.99 70.9236 34.99 70.9218 34.99C70.92 34.99 70.9183 34.99 70.9165 34.99C70.9147 34.99 70.913 34.99 70.9112 34.99C70.9094 34.99 70.9077 34.99 70.9059 34.99C70.9041 34.99 70.9024 34.99 70.9006 34.99C70.8988 34.99 70.8971 34.99 70.8953 34.99C70.8935 34.99 70.8917 34.99 70.89 34.99C70.8882 34.99 70.8864 34.99 70.8847 34.99C70.8829 34.99 70.8811 34.99 70.8794 34.99C70.8776 34.99 70.8758 34.99 70.8741 34.99C70.8723 34.99 70.8705 34.99 70.8688 34.99C70.867 34.99 70.8652 34.99 70.8635 34.99C70.8617 34.99 70.8599 34.99 70.8582 34.99C70.8564 34.99 70.8546 34.99 70.8529 34.99C70.8511 34.99 70.8493 34.99 70.8476 34.99C70.8458 34.99 70.844 34.99 70.8423 34.99C70.8405 34.99 70.8387 34.99 70.837 34.99C70.8352 34.99 70.8334 34.99 70.8317 34.99C70.8299 34.99 70.8281 34.99 70.8264 34.99C70.8246 34.99 70.8228 34.99 70.8211 34.99C70.8193 34.99 70.8176 34.99 70.8158 34.99C70.814 34.99 70.8123 34.99 70.8105 34.99C70.8087 34.99 70.807 34.99 70.8052 34.99C70.8034 34.99 70.8017 34.99 70.7999 34.99C70.7981 34.99 70.7964 34.99 70.7946 34.99C70.7928 34.99 70.7911 34.99 70.7893 34.99C70.7875 34.99 70.7858 34.99 70.784 34.99C70.7823 34.99 70.7805 34.99 70.7787 34.99C70.777 34.99 70.7752 34.99 70.7734 34.99C70.7717 34.99 70.7699 34.99 70.7681 34.99C70.7664 34.99 70.7646 34.99 70.7629 34.99C70.7611 34.99 70.7593 34.99 70.7576 34.99C70.7558 34.99 70.754 34.99 70.7523 34.99C70.7505 34.99 70.7487 34.99 70.747 34.99C70.7452 34.99 70.7435 34.99 70.7417 34.99C70.7399 34.99 70.7382 34.99 70.7364 34.99C70.7346 34.99 70.7329 34.99 70.7311 34.99C70.7294 34.99 70.7276 34.99 70.7258 34.99C70.7241 34.99 70.7223 34.99 70.7205 34.99C70.7188 34.99 70.717 34.99 70.7153 34.99C70.7135 34.99 70.7117 34.99 70.71 34.99C70.7082 34.99 70.7065 34.99 70.7047 34.99C70.7029 34.99 70.7012 34.99 70.6994 34.99C70.6976 34.99 70.6959 34.99 70.6941 34.99C70.6924 34.99 70.6906 34.99 70.6888 34.99C70.6871 34.99 70.6853 34.99 70.6835 34.99C70.6818 34.99 70.68 34.99 70.6783 34.99C70.6765 34.99 70.6747 34.99 70.673 34.99C70.6712 34.99 70.6695 34.99 70.6677 34.99C70.6659 34.99 70.6642 34.99 70.6624 34.99C70.6607 34.99 70.6589 34.99 70.6571 34.99C70.6554 34.99 70.6536 34.99 70.6519 34.99C70.6501 34.99 70.6483 34.99 70.6466 34.99C70.6448 34.99 70.6431 34.99 70.6413 34.99C70.6395 34.99 70.6378 34.99 70.636 34.99C70.6343 34.99 70.6325 34.99 70.6307 34.99C70.629 34.99 70.6272 34.99 70.6255 34.99C70.6237 34.99 70.6219 34.99 70.6202 34.99C70.6184 34.99 70.6167 34.99 70.6149 34.99C70.6131 34.99 70.6114 34.99 70.6096 34.99C70.6079 34.99 70.6061 34.99 70.6043 34.99C70.6026 34.99 70.6008 34.99 70.5991 34.99C70.5973 34.99 70.5955 34.99 70.5938 34.99C70.592 34.99 70.5903 34.99 70.5885 34.99C70.5867 34.99 70.585 34.99 70.5832 34.99C70.5815 34.99 70.5797 34.99 70.5779 34.99C70.5762 34.99 70.5744 34.99 70.5727 34.99C70.5709 34.99 70.5692 34.99 70.5674 34.99C70.5656 34.99 70.5639 34.99 70.5621 34.99C70.5604 34.99 70.5586 34.99 70.5568 34.99C70.5551 34.99 70.5533 34.99 70.5516 34.99C70.5498 34.99 70.5481 34.99 70.5463 34.99C70.5445 34.99 70.5428 34.99 70.541 34.99C70.5393 34.99 70.5375 34.99 70.5357 34.99C70.534 34.99 70.5322 34.99 70.5305 34.99C70.5287 34.99 70.527 34.99 70.5252 34.99C70.5234 34.99 70.5217 34.99 70.5199 34.99C70.5182 34.99 70.5164 34.99 70.5147 34.99C70.5129 34.99 70.5111 34.99 70.5094 34.99C70.5076 34.99 70.5059 34.99 70.5041 34.99C70.5023 34.99 70.5006 34.99 70.4988 34.99C70.4971 34.99 70.4953 34.99 70.4936 34.99C70.4918 34.99 70.49 34.99 70.4883 34.99C70.4865 34.99 70.4848 34.99 70.483 34.99C70.4813 34.99 70.4795 34.99 70.4777 34.99C70.476 34.99 70.4742 34.99 70.4725 34.99C70.4707 34.99 70.469 34.99 70.4672 34.99C70.4654 34.99 70.4637 34.99 70.4619 34.99C70.4602 34.99 70.4584 34.99 70.4567 34.99C70.4549 34.99 70.4531 34.99 70.4514 34.99C70.4496 34.99 70.4479 34.99 70.4461 34.99C70.4444 34.99 70.4426 34.99 70.4408 34.99C70.4391 34.99 70.4373 34.99 70.4356 34.99C70.4338 34.99 70.4321 34.99 70.4303 34.99C70.4285 34.99 70.4268 34.99 70.425 34.99C70.4233 34.99 70.4215 34.99 70.4198 34.99C70.418 34.99 70.4163 34.99 70.4145 34.99C70.4127 34.99 70.411 34.99 70.4092 34.99C70.4075 34.99 70.4057 34.99 70.404 34.99C70.4022 34.99 70.4004 34.99 70.3987 34.99C70.3969 34.99 70.3952 34.99 70.3934 34.99C70.3917 34.99 70.3899 34.99 70.3882 34.99C70.3864 34.99 70.3846 34.99 70.3829 34.99C70.3811 34.99 70.3794 34.99 70.3776 34.99C70.3759 34.99 70.3741 34.99 70.3723 34.99C70.3706 34.99 70.3688 34.99 70.3671 34.99C70.3653 34.99 70.3636 34.99 70.3618 34.99C70.3601 34.99 70.3583 34.99 70.3565 34.99C70.3548 34.99 70.353 34.99 70.3513 34.99C70.3495 34.99 70.3478 34.99 70.346 34.99C70.3442 34.99 70.3425 34.99 70.3407 34.99C70.339 34.99 70.3372 34.99 70.3355 34.99C70.3337 34.99 70.332 34.99 70.3302 34.99C70.3284 34.99 70.3267 34.99 70.3249 34.99C70.3232 34.99 70.3214 34.99 70.3197 34.99C70.3179 34.99 70.3162 34.99 70.3144 34.99C70.3126 34.99 70.3109 34.99 70.3091 34.99C70.3074 34.99 70.3056 34.99 70.3039 34.99C70.3021 34.99 70.3003 34.99 70.2986 34.99C70.2968 34.99 70.2951 34.99 70.2933 34.99C70.2916 34.99 70.2898 34.99 70.2881 34.99C70.2863 34.99 70.2845 34.99 70.2828 34.99C70.281 34.99 70.2793 34.99 70.2775 34.99C70.2758 34.99 70.274 34.99 70.2723 34.99C70.2705 34.99 70.2687 34.99 70.267 34.99C70.2652 34.99 70.2635 34.99 70.2617 34.99C70.26 34.99 70.2582 34.99 70.2565 34.99C70.2547 34.99 70.2529 34.99 70.2512 34.99C70.2494 34.99 70.2477 34.99 70.2459 34.99C70.2442 34.99 70.2424 34.99 70.2406 34.99C70.2389 34.99 70.2371 34.99 70.2354 34.99C70.2336 34.99 70.2319 34.99 70.2301 34.99C70.2284 34.99 70.2266 34.99 70.2248 34.99C70.2231 34.99 70.2213 34.99 70.2196 34.99C70.2178 34.99 70.2161 34.99 70.2143 34.99C70.2126 34.99 70.2108 34.99 70.209 34.99C70.2073 34.99 70.2055 34.99 70.2038 34.99C70.202 34.99 70.2003 34.99 70.1985 34.99C70.1967 34.99 70.195 34.99 70.1932 34.99C70.1915 34.99 70.1897 34.99 70.188 34.99C70.1862 34.99 70.1845 34.99 70.1827 34.99C70.1809 34.99 70.1792 34.99 70.1774 34.99C70.1757 34.99 70.1739 34.99 70.1722 34.99C70.1704 34.99 70.1687 34.99 70.1669 34.99C70.1651 34.99 70.1634 34.99 70.1616 34.99C70.1599 34.99 70.1581 34.99 70.1564 34.99C70.1546 34.99 70.1528 34.99 70.1511 34.99C70.1493 34.99 70.1476 34.99 70.1458 34.99C70.1441 34.99 70.1423 34.99 70.1406 34.99C70.1388 34.99 70.137 34.99 70.1353 34.99C70.1335 34.99 70.1318 34.99 70.13 34.99C70.1283 34.99 70.1265 34.99 70.1247 34.99C70.123 34.99 70.1212 34.99 70.1195 34.99C70.1177 34.99 70.116 34.99 70.1142 34.99C70.1124 34.99 70.1107 34.99 70.1089 34.99C70.1072 34.99 70.1054 34.99 70.1037 34.99C70.1019 34.99 70.1002 34.99 70.0984 34.99C70.0966 34.99 70.0949 34.99 70.0931 34.99C70.0914 34.99 70.0896 34.99 70.0879 34.99C70.0861 34.99 70.0843 34.99 70.0826 34.99C70.0808 34.99 70.0791 34.99 70.0773 34.99C70.0756 34.99 70.0738 34.99 70.072 34.99C70.0703 34.99 70.0685 34.99 70.0668 34.99C70.065 34.99 70.0633 34.99 70.0615 34.99C70.0597 34.99 70.058 34.99 70.0562 34.99C70.0545 34.99 70.0527 34.99 70.051 34.99C70.0492 34.99 70.0474 34.99 70.0457 34.99C70.0439 34.99 70.0422 34.99 70.0404 34.99C70.0387 34.99 70.0369 34.99 70.0351 34.99C70.0334 34.99 70.0316 34.99 70.0299 34.99C70.0281 34.99 70.0264 34.99 70.0246 34.99C70.0228 34.99 70.0211 34.99 70.0193 34.99C70.0176 34.99 70.0158 34.99 70.014 34.99C70.0123 34.99 70.0105 34.99 70.0088 34.99C70.007 34.99 70.0053 34.99 70.0035 34.99C70.0017 34.99 70 34.99 69.9982 34.99C69.9965 34.99 69.9947 34.99 69.9929 34.99C69.9912 34.99 69.9894 34.99 69.9877 34.99C69.9859 34.99 69.9842 34.99 69.9824 34.99C69.9806 34.99 69.9789 34.99 69.9771 34.99C69.9754 34.99 69.9736 34.99 69.9718 34.99C69.9701 34.99 69.9683 34.99 69.9666 34.99C69.9648 34.99 69.9631 34.99 69.9613 34.99C69.9595 34.99 69.9578 34.99 69.956 34.99C69.9543 34.99 69.9525 34.99 69.9507 34.99C69.949 34.99 69.9472 34.99 69.9455 34.99C69.9437 34.99 69.9419 34.99 69.9402 34.99C69.9384 34.99 69.9367 34.99 69.9349 34.99C69.9332 34.99 69.9314 34.99 69.9296 34.99C69.9279 34.99 69.9261 34.99 69.9244 34.99C69.9226 34.99 69.9208 34.99 69.9191 34.99C69.9173 34.99 69.9156 34.99 69.9138 34.99C69.912 34.99 69.9103 34.99 69.9085 34.99C69.9068 34.99 69.905 34.99 69.9032 34.99C69.9015 34.99 69.8997 34.99 69.898 34.99C69.8962 34.99 69.8944 34.99 69.8927 34.99C69.8909 34.99 69.8892 34.99 69.8874 34.99C69.8856 34.99 69.8839 34.99 69.8821 34.99C69.8804 34.99 69.8786 34.99 69.8768 34.99C69.8751 34.99 69.8733 34.99 69.8716 34.99C69.8698 34.99 69.868 34.99 69.8663 34.99C69.8645 34.99 69.8627 34.99 69.861 34.99C69.8592 34.99 69.8575 34.99 69.8557 34.99C69.8539 34.99 69.8522 34.99 69.8504 34.99C69.8487 34.99 69.8469 34.99 69.8451 34.99C69.8434 34.99 69.8416 34.99 69.8399 34.99C69.8381 34.99 69.8363 34.99 69.8346 34.99C69.8328 34.99 69.831 34.99 69.8293 34.99C69.8275 34.99 69.8258 34.99 69.824 34.99C69.8222 34.99 69.8205 34.99 69.8187 34.99C69.8169 34.99 69.8152 34.99 69.8134 34.99C69.8117 34.99 69.8099 34.99 69.8081 34.99C69.8064 34.99 69.8046 34.99 69.8028 34.99C69.8011 34.99 69.7993 34.99 69.7976 34.99C69.7958 34.99 69.794 34.99 69.7923 34.99C69.7905 34.99 69.7887 34.99 69.787 34.99C69.7852 34.99 69.7835 34.99 69.7817 34.99C69.7799 34.99 69.7782 34.99 69.7764 34.99C69.7746 34.99 69.7729 34.99 69.7711 34.99C69.7694 34.99 69.7676 34.99 69.7658 34.99C69.7641 34.99 69.7623 34.99 69.7605 34.99C69.7588 34.99 69.757 34.99 69.7552 34.99C69.7535 34.99 69.7517 34.99 69.7499 34.99C69.7482 34.99 69.7464 34.99 69.7447 34.99C69.7429 34.99 69.7411 34.99 69.7394 34.99C69.7376 34.99 69.7358 34.99 69.7341 34.99C69.7323 34.99 69.7305 34.99 69.7288 34.99C69.727 34.99 69.7252 34.99 69.7235 34.99C69.7217 34.99 69.72 34.99 69.7182 34.99C69.7164 34.99 69.7147 34.99 69.7129 34.99C69.7111 34.99 69.7094 34.99 69.7076 34.99C69.7058 34.99 69.7041 34.99 69.7023 34.99C69.7005 34.99 69.6988 34.99 69.697 34.99C69.6952 34.99 69.6935 34.99 69.6917 34.99C69.6899 34.99 69.6882 34.99 69.6864 34.99C69.6846 34.99 69.6829 34.99 69.6811 34.99C69.6793 34.99 69.6776 34.99 69.6758 34.99C69.674 34.99 69.6723 34.99 69.6705 34.99C69.6687 34.99 69.667 34.99 69.6652 34.99C69.6634 34.99 69.6617 34.99 69.6599 34.99C69.6581 34.99 69.6564 34.99 69.6546 34.99C69.6528 34.99 69.6511 34.99 69.6493 34.99C69.6475 34.99 69.6458 34.99 69.644 34.99C69.6422 34.99 69.6405 34.99 69.6387 34.99C69.6369 34.99 69.6352 34.99 69.6334 34.99C69.6316 34.99 69.6298 34.99 69.6281 34.99C69.6263 34.99 69.6245 34.99 69.6228 34.99C69.621 34.99 69.6192 34.99 69.6175 34.99C69.6157 34.99 69.6139 34.99 69.6122 34.99C69.6104 34.99 69.6086 34.99 69.6069 34.99C69.6051 34.99 69.6033 34.99 69.6015 34.99C69.5998 34.99 69.598 34.99 69.5962 34.99C69.5945 34.99 69.5927 34.99 69.5909 34.99C69.5892 34.99 69.5874 34.99 69.5856 34.99C69.5838 34.99 69.5821 34.99 69.5803 34.99C69.5785 34.99 69.5768 34.99 69.575 34.99C69.5732 34.99 69.5714 34.99 69.5697 34.99C69.5679 34.99 69.5661 34.99 69.5644 34.99C69.5626 34.99 69.5608 34.99 69.5591 34.99C69.5573 34.99 69.5555 34.99 69.5537 34.99C69.552 34.99 69.5502 34.99 69.5484 34.99C69.5466 34.99 69.5449 34.99 69.5431 34.99C69.5413 34.99 69.5396 34.99 69.5378 34.99C69.536 34.99 69.5342 34.99 69.5325 34.99C69.5307 34.99 69.5289 34.99 69.5272 34.99C69.5254 34.99 69.5236 34.99 69.5218 34.99C69.5201 34.99 69.5183 34.99 69.5165 34.99C69.5147 34.99 69.513 34.99 69.5112 34.99C69.5094 34.99 69.5076 34.99 69.5059 34.99C69.5041 34.99 69.5023 34.99 69.5006 34.99C69.4988 34.99 69.497 34.99 69.4952 34.99C69.4935 34.99 69.4917 34.99 69.4899 34.99C69.4881 34.99 69.4864 34.99 69.4846 34.99C69.4828 34.99 69.481 34.99 69.4793 34.99C69.4775 34.99 69.4757 34.99 69.4739 34.99C69.4722 34.99 69.4704 34.99 69.4686 34.99C69.4668 34.99 69.4651 34.99 69.4633 34.99C69.4615 34.99 69.4597 34.99 69.458 34.99C69.4562 34.99 69.4544 34.99 69.4526 34.99C69.4508 34.99 69.4491 34.99 69.4473 34.99C69.4455 34.99 69.4437 34.99 69.442 34.99C69.4402 34.99 69.4384 34.99 69.4366 34.99C69.4349 34.99 69.4331 34.99 69.4313 34.99C69.4295 34.99 69.4277 34.99 69.426 34.99C69.4242 34.99 69.4224 34.99 69.4206 34.99C69.4189 34.99 69.4171 34.99 69.4153 34.99C69.4135 34.99 69.4117 34.99 69.41 34.99C69.4082 34.99 69.4064 34.99 69.4046 34.99C69.4028 34.99 69.4011 34.99 69.3993 34.99C69.3975 34.99 69.3957 34.99 69.394 34.99C69.3922 34.99 69.3904 34.99 69.3886 34.99C69.3868 34.99 69.3851 34.99 69.3833 34.99C69.3815 34.99 69.3797 34.99 69.3779 34.99C69.3762 34.99 69.3744 34.99 69.3726 34.99C69.3708 34.99 69.369 34.99 69.3673 34.99C69.3655 34.99 69.3637 34.99 69.3619 34.99C69.3601 34.99 69.3583 34.99 69.3566 34.99C69.3548 34.99 69.353 34.99 69.3512 34.99C69.3494 34.99 69.3477 34.99 69.3459 34.99C69.3441 34.99 69.3423 34.99 69.3405 34.99C69.3387 34.99 69.337 34.99 69.3352 34.99C69.3334 34.99 69.3316 34.99 69.3298 34.99C69.328 34.99 69.3263 34.99 69.3245 34.99C69.3227 34.99 69.3209 34.99 69.3191 34.99C69.3173 34.99 69.3156 34.99 69.3138 34.99C69.312 34.99 69.3102 34.99 69.3084 34.99C69.3066 34.99 69.3049 34.99 69.3031 34.99C69.3013 34.99 69.2995 34.99 69.2977 34.99C69.2959 34.99 69.2942 34.99 69.2924 34.99C69.2906 34.99 69.2888 34.99 69.287 34.99C69.2852 34.99 69.2834 34.99 69.2817 34.99C69.2799 34.99 69.2781 34.99 69.2763 34.99C69.2745 34.99 69.2727 34.99 69.2709 34.99C69.2692 34.99 69.2674 34.99 69.2656 34.99C69.2638 34.99 69.262 34.99 69.2602 34.99C69.2584 34.99 69.2566 34.99 69.2549 34.99C69.2531 34.99 69.2513 34.99 69.2495 34.99C69.2477 34.99 69.2459 34.99 69.2441 34.99C69.2423 34.99 69.2406 34.99 69.2388 34.99C69.237 34.99 69.2352 34.99 69.2334 34.99C69.2316 34.99 69.2298 34.99 69.228 34.99C69.2262 34.99 69.2245 34.99 69.2227 34.99C69.2209 34.99 69.2191 34.99 69.2173 34.99C69.2155 34.99 69.2137 34.99 69.2119 34.99C69.2101 34.99 69.2083 34.99 69.2066 34.99C69.2048 34.99 69.203 34.99 69.2012 34.99C69.1994 34.99 69.1976 34.99 69.1958 34.99C69.194 34.99 69.1922 34.99 69.1904 34.99C69.1886 34.99 69.1869 34.99 69.1851 34.99C69.1833 34.99 69.1815 34.99 69.1797 34.99C69.1779 34.99 69.1761 34.99 69.1743 34.99C69.1725 34.99 69.1707 34.99 69.1689 34.99C69.1671 34.99 69.1653 34.99 69.1636 34.99C69.1618 34.99 69.16 34.99 69.1582 34.99C69.1564 34.99 69.1546 34.99 69.1528 34.99C69.151 34.99 69.1492 34.99 69.1474 34.99C69.1456 34.99 69.1438 34.99 69.142 34.99C69.1402 34.99 69.1384 34.99 69.1366 34.99C69.1348 34.99 69.133 34.99 69.1313 34.99C69.1295 34.99 69.1277 34.99 69.1259 34.99C69.1241 34.99 69.1223 34.99 69.1205 34.99C69.1187 34.99 69.1169 34.99 69.1151 34.99C69.1133 34.99 69.1115 34.99 69.1097 34.99C69.1079 34.99 69.1061 34.99 69.1043 34.99C69.1025 34.99 69.1007 34.99 69.0989 34.99C69.0971 34.99 69.0953 34.99 69.0935 34.99C69.0917 34.99 69.0899 34.99 69.0881 34.99C69.0863 34.99 69.0845 34.99 69.0827 34.99C69.0809 34.99 69.0791 34.99 69.0773 34.99C69.0755 34.99 69.0737 34.99 69.0719 34.99C69.0701 34.99 69.0683 34.99 69.0665 34.99C69.0647 34.99 69.0629 34.99 69.0611 34.99C69.0593 34.99 69.0575 34.99 69.0557 34.99C69.0539 34.99 69.0521 34.99 69.0503 34.99C69.0485 34.99 69.0467 34.99 69.0449 34.99C69.0431 34.99 69.0413 34.99 69.0395 34.99C69.0377 34.99 69.0359 34.99 69.0341 34.99C69.0323 34.99 69.0305 34.99 69.0287 34.99C69.0269 34.99 69.0251 34.99 69.0233 34.99C69.0215 34.99 69.0197 34.99 69.0179 34.99C69.0161 34.99 69.0143 34.99 69.0125 34.99C69.0107 34.99 69.0089 34.99 69.0071 34.99C69.0053 34.99 69.0035 34.99 69.0017 34.99C68.9998 34.99 68.998 34.99 68.9962 34.99C68.9944 34.99 68.9926 34.99 68.9908 34.99C68.989 34.99 68.9872 34.99 68.9854 34.99C68.9836 34.99 68.9818 34.99 68.98 34.99C68.9782 34.99 68.9764 34.99 68.9746 34.99C68.9728 34.99 68.9709 34.99 68.9691 34.99C68.9673 34.99 68.9655 34.99 68.9637 34.99C68.9619 34.99 68.9601 34.99 68.9583 34.99C68.9565 34.99 68.9547 34.99 68.9529 34.99C68.9511 34.99 68.9493 34.99 68.9474 34.99C68.9456 34.99 68.9438 34.99 68.942 34.99C68.9402 34.99 68.9384 34.99 68.9366 34.99C68.9348 34.99 68.933 34.99 68.9312 34.99C68.9293 34.99 68.9275 34.99 68.9257 34.99C68.9239 34.99 68.9221 34.99 68.9203 34.99C68.9185 34.99 68.9167 34.99 68.9149 34.99C68.913 34.99 68.9112 34.99 68.9094 34.99C68.9076 34.99 68.9058 34.99 68.904 34.99V36.99ZM71.63 36.99C72.0243 36.99 72.5236 37.0602 73.1548 37.1458C73.7455 37.226 74.4391 37.3173 75.0866 37.3089C75.7165 37.3008 76.4765 37.2 77.0925 36.7461C77.7734 36.2444 78.082 35.4656 78.082 34.54H76.082C76.082 35.0064 75.9483 35.1049 75.9061 35.136C75.7988 35.215 75.5547 35.3027 75.0608 35.3091C74.5846 35.3152 74.0348 35.247 73.4238 35.164C72.8534 35.0866 72.1926 34.99 71.63 34.99V36.99ZM78.082 34.54C78.082 33.6471 78.1481 32.0802 77.8814 30.947L75.9346 31.405C76.1319 32.2438 76.082 33.4609 76.082 34.54H78.082Z" fill="white"/>
<path d="M7.45639 45.9494H13.9871V47.7813H9.5286V49.8286L12.7786 49.8281V51.66L9.53296 51.6735V54.1428H14.1399V55.9747H7.45639V45.9494Z" fill="#4C527D"/>
<path d="M18.6383 52.0415H17.2318V55.9747H15.2653V45.9496H18.6541C19.0917 45.9456 19.5278 46.0002 19.9534 46.1116C20.3298 46.2074 20.6841 46.3865 20.9947 46.6374C21.2951 46.8867 21.5344 47.2133 21.6913 47.5881C21.8702 48.0366 21.9563 48.5222 21.9439 49.0108C21.9936 49.8737 21.6696 50.712 21.0687 51.2764C20.3657 51.8333 19.5057 52.1042 18.6384 52.0415L18.6383 52.0415ZM18.4869 47.7802H17.2318V50.2073H18.4869C18.676 50.2078 18.8647 50.1927 19.0515 50.1611C19.2171 50.1355 19.3772 50.0773 19.5236 49.9896C19.6611 49.9058 19.7748 49.7824 19.8525 49.6334C19.9427 49.4488 19.9855 49.2416 19.9772 49.0334C19.9837 48.8287 19.9542 48.625 19.8898 48.4328C19.8392 48.2894 19.7536 48.1639 19.6423 48.0701C19.294 47.8454 18.89 47.7451 18.4869 47.7837V47.7802Z" fill="#4C527D"/>
<path d="M26.6944 55.9663C25.7918 56.0316 24.9044 55.6797 24.2301 54.9902C23.6109 54.233 23.2938 53.2154 23.3542 52.1804V45.9494H25.1982V52.0539C25.1516 52.6238 25.2694 53.1951 25.5347 53.6804C25.8242 54.0407 26.2466 54.2211 26.6711 54.1652C26.9171 54.1736 27.1621 54.1331 27.3959 54.0456C27.569 53.9779 27.7234 53.8583 27.8425 53.6992C28.1065 53.2188 28.2248 52.6514 28.1786 52.0859V45.9494H30.0225V52.0875C30.0851 53.1397 29.7758 54.1767 29.1644 54.966C28.4961 55.6737 27.6025 56.0355 26.6944 55.9663L26.6944 55.9663Z" fill="#4C527D"/>
<path d="M34.7125 55.9642H31.4286V45.9494H34.7966C35.185 45.9484 35.5725 45.9889 35.9542 46.0706C36.3083 46.1422 36.6475 46.2859 36.9546 46.4947C37.2451 46.696 37.4849 46.9765 37.6506 47.309C37.8363 47.7031 37.9261 48.1438 37.9117 48.5875C37.9167 49.0206 37.8159 49.4468 37.6204 49.8213C37.4207 50.1954 37.1258 50.4949 36.7726 50.6832C37.2035 50.8619 37.5698 51.193 37.8146 51.6251C38.0201 52.0848 38.1195 52.5936 38.105 53.1059C38.166 53.9487 37.8318 54.7675 37.2207 55.2732C36.47 55.788 35.5934 56.0294 34.7127 55.9643L34.7125 55.9642ZM34.8521 47.7757H33.3589V49.7948H34.9C35.0364 49.7958 35.1728 49.7757 35.3046 49.7352C35.4266 49.7001 35.5418 49.6405 35.6443 49.5589C35.7419 49.4808 35.8227 49.3801 35.8823 49.264C35.9455 49.1333 35.9772 48.986 35.9731 48.8378C35.9925 48.5429 35.8895 48.2539 35.694 48.0526C35.4532 47.8498 35.1533 47.7527 34.8521 47.7802L34.8521 47.7757ZM34.8945 51.6256L33.3589 51.6251V54.1289H34.9189C35.2523 54.1554 35.5838 54.0543 35.8579 53.8429C36.0942 53.5825 36.2111 53.2175 36.1755 52.8499C36.2035 52.5049 36.0924 52.1638 35.8719 51.918C35.5851 51.7021 35.2405 51.6005 34.8946 51.6295L34.8945 51.6256Z" fill="#4C527D"/>
<path d="M45.7829 15.4892C45.762 15.468 45.741 15.4366 45.7205 15.4155H45.72C45.6986 15.385 45.6743 15.3568 45.6468 15.3314L30.7234 0.305119C30.7024 0.283996 30.6712 0.262872 30.6502 0.242216C30.6292 0.221093 30.5877 0.189641 30.5668 0.168517L30.4101 0H4.17722C3.06951 0 2.00697 0.443135 1.22333 1.23176C0.440099 2.02086 0 3.09071 0 4.20602V56.7813C0 57.8967 0.440099 58.9665 1.22333 59.7556C2.00702 60.5442 3.06954 60.9873 4.17722 60.9873H41.7722C42.8799 60.9873 43.9424 60.5442 44.726 59.7556C45.5093 58.9665 45.9494 57.8966 45.9494 56.7813V15.6464L45.7829 15.4892ZM43.8612 56.7815C43.8593 57.3387 43.6388 57.8729 43.2477 58.2667C42.8565 58.6605 42.326 58.8826 41.7726 58.8845H4.1777C3.62431 58.8826 3.09377 58.6606 2.70266 58.2667C2.31156 57.8729 2.091 57.3387 2.08914 56.7815V40.4405H16.4277L19.2473 43.6898C19.4436 43.9189 19.7303 44.0494 20.0306 44.0475H43.8622L43.8612 56.7815ZM6.26626 26.6556V24.5525H39.684V26.6556H6.26626ZM39.684 29.1792V31.2822H21.1897V29.1792H39.684ZM39.684 22.0393H6.26626V19.9363H39.684V22.0393ZM6.26626 17.4126V15.3096H24.7606V17.4126H6.26626ZM33.115 15.0257V15.0261C32.5616 15.0243 32.0315 14.8022 31.64 14.4084C31.2488 14.0141 31.0283 13.4803 31.0265 12.9232V3.58543L42.3888 15.0262L33.115 15.0257Z" fill="#4C527D"/>
<path d="M131.834 15.4892C131.813 15.468 131.792 15.4366 131.771 15.4155H131.771C131.749 15.385 131.725 15.3568 131.698 15.3314L116.774 0.305119C116.753 0.283996 116.722 0.262872 116.701 0.242216C116.68 0.221093 116.639 0.189641 116.618 0.168517L116.461 0H90.228C89.1203 0 88.0578 0.443135 87.2741 1.23176C86.4909 2.02086 86.0508 3.09071 86.0508 4.20602V56.7813C86.0508 57.8967 86.4909 58.9665 87.2741 59.7556C88.0578 60.5442 89.1203 60.9873 90.228 60.9873H127.823C128.931 60.9873 129.993 60.5442 130.777 59.7556C131.56 58.9665 132 57.8966 132 56.7813V15.6464L131.834 15.4892ZM129.912 56.7815C129.91 57.3387 129.69 57.8729 129.298 58.2667C128.907 58.6605 128.377 58.8826 127.823 58.8845H90.2285C89.6751 58.8826 89.1446 58.6606 88.7534 58.2667C88.3623 57.8729 88.1418 57.3387 88.1399 56.7815V40.4405H102.479L105.298 43.6898C105.494 43.9189 105.781 44.0494 106.081 44.0475H129.913L129.912 56.7815ZM92.317 26.6556V24.5525H125.735V26.6556H92.317ZM125.735 29.1792V31.2822H107.24V29.1792H125.735ZM125.735 22.0393H92.317V19.9363H125.735V22.0393ZM92.317 17.4126V15.3096H110.811V17.4126H92.317ZM119.166 15.0257V15.0261C118.612 15.0243 118.082 14.8022 117.691 14.4084C117.3 14.0141 117.079 13.4803 117.077 12.9232V3.58543L128.44 15.0262L119.166 15.0257Z" fill="#4C527D"/>
<path d="M97.3264 55.6002C97.2342 55.6002 97.1588 55.5709 97.1001 55.5122C97.0414 55.4536 97.0121 55.3781 97.0121 55.2859V47.1145C97.0121 47.0223 97.0414 46.9469 97.1001 46.8882C97.1588 46.8296 97.2342 46.8002 97.3264 46.8002H100.758C101.437 46.8002 102.024 46.905 102.518 47.1145C103.021 47.324 103.411 47.6425 103.688 48.0699C103.972 48.489 104.115 49.0128 104.115 49.6414C104.115 50.2783 103.972 50.8063 103.688 51.2254C103.411 51.636 103.021 51.9419 102.518 52.1431C102.024 52.3442 101.437 52.4448 100.758 52.4448H99.0738V55.2859C99.0738 55.3781 99.0445 55.4536 98.9858 55.5122C98.9272 55.5709 98.8517 55.6002 98.7595 55.6002H97.3264ZM99.0361 50.8859H100.696C101.123 50.8859 101.454 50.7812 101.689 50.5717C101.932 50.3621 102.053 50.0478 102.053 49.6288C102.053 49.26 101.944 48.9583 101.726 48.7237C101.517 48.489 101.173 48.3717 100.696 48.3717H99.0361V50.8859Z" fill="#4C527D"/>
<path d="M105.711 55.6002C105.619 55.6002 105.544 55.5709 105.485 55.5122C105.426 55.4536 105.397 55.3781 105.397 55.2859V47.1145C105.397 47.0223 105.426 46.9469 105.485 46.8882C105.544 46.8296 105.619 46.8002 105.711 46.8002H108.867C109.705 46.8002 110.405 46.9343 110.966 47.2025C111.528 47.4623 111.955 47.8479 112.249 48.3591C112.55 48.8619 112.71 49.4863 112.726 50.2322C112.735 50.601 112.739 50.9237 112.739 51.2002C112.739 51.4768 112.735 51.7953 112.726 52.1557C112.701 52.9351 112.546 53.5804 112.261 54.0917C111.976 54.6029 111.557 54.9842 111.004 55.2357C110.451 55.4787 109.759 55.6002 108.93 55.6002H105.711ZM107.396 53.9785H108.867C109.286 53.9785 109.63 53.9157 109.898 53.7899C110.166 53.6642 110.363 53.4673 110.489 53.1991C110.623 52.9225 110.694 52.5663 110.702 52.1305C110.711 51.8875 110.715 51.6696 110.715 51.4768C110.723 51.284 110.723 51.0913 110.715 50.8985C110.715 50.7058 110.711 50.492 110.702 50.2574C110.686 49.6288 110.522 49.1678 110.212 48.8745C109.91 48.5728 109.441 48.4219 108.804 48.4219H107.396V53.9785Z" fill="#4C527D"/>
<path d="M114.624 55.6002C114.532 55.6002 114.457 55.5709 114.398 55.5122C114.339 55.4536 114.31 55.3781 114.31 55.2859V47.1145C114.31 47.0223 114.339 46.9469 114.398 46.8882C114.457 46.8296 114.532 46.8002 114.624 46.8002H120.231C120.323 46.8002 120.399 46.8296 120.458 46.8882C120.516 46.9469 120.546 47.0223 120.546 47.1145V48.1831C120.546 48.2753 120.516 48.3507 120.458 48.4094C120.399 48.468 120.323 48.4974 120.231 48.4974H116.271V50.6219H119.98C120.072 50.6219 120.147 50.6513 120.206 50.7099C120.265 50.7686 120.294 50.844 120.294 50.9362V52.0048C120.294 52.0886 120.265 52.1599 120.206 52.2185C120.147 52.2772 120.072 52.3065 119.98 52.3065H116.271V55.2859C116.271 55.3781 116.242 55.4536 116.183 55.5122C116.125 55.5709 116.049 55.6002 115.957 55.6002H114.624Z" fill="#4C527D"/>
</svg>
